<svg version="1.1" id="Capa_1" xmlns="http://www.w3.org/2000/svg" xmlns:xlink="http://www.w3.org/1999/xlink" x="0px" y="0px" viewBox="0 0 58 58" style="enable-background:new 0 0 58 58;" xml:space="preserve" width="58" height="58"><path style="fill:#0bab7d;" d="M48 53.5H10c-5.5 0 -10 -4.5 -10 -10s4.5 -10 10 -10h38c5.5 0 10 4.5 10 10s-4.5 10 -10 10"/><g><path style="fill:#ffffff;" d="M14.553 40.605 12 41.882V38.5a1 1 0 1 0 -2 0v3.382l-2.553 -1.276a1 1 0 0 0 -0.895 1.789l2.928 1.464L7.2 46.9a1 1 0 1 0 1.6 1.2l2.2 -2.934 2.2 2.934a0.997 0.997 0 0 0 1.4 0.2 1 1 0 0 0 0.2 -1.4l-2.281 -3.041 2.928 -1.464a1 1 0 0 0 -0.894 -1.79"/><path style="fill:#ffffff;" d="M26.553 40.605 24 41.882V38.5a1 1 0 1 0 -2 0v3.382l-2.553 -1.276a1 1 0 0 0 -0.895 1.789l2.928 1.464L19.2 46.9a1 1 0 1 0 1.6 1.2l2.2 -2.934 2.2 2.934a0.997 0.997 0 0 0 1.4 0.2 1 1 0 0 0 0.2 -1.4l-2.281 -3.041 2.928 -1.464a1 1 0 0 0 -0.894 -1.79"/><path style="fill:#ffffff;" d="M38.553 40.605 36 41.882V38.5a1 1 0 1 0 -2 0v3.382l-2.553 -1.276a1 1 0 0 0 -0.895 1.789l2.928 1.464L31.2 46.9a1 1 0 1 0 1.6 1.2l2.2 -2.934 2.2 2.934a0.997 0.997 0 0 0 1.4 0.2 1 1 0 0 0 0.2 -1.4l-2.281 -3.041 2.928 -1.464a1 1 0 0 0 -0.894 -1.79"/><path style="fill:#ffffff;" d="M51.895 41.053a1 1 0 0 0 -1.342 -0.447L48 41.882V38.5a1 1 0 1 0 -2 0v3.382l-2.553 -1.276a1 1 0 0 0 -0.895 1.789l2.928 1.464L43.2 46.9a1 1 0 1 0 1.6 1.2l2.2 -2.934 2.2 2.934a0.997 0.997 0 0 0 1.4 0.2 1 1 0 0 0 0.2 -1.4l-2.281 -3.041 2.928 -1.464c0.494 -0.248 0.695 -0.848 0.448 -1.342"/></g></svg>