<!DOCTYPE svg PUBLIC "-//W3C//DTD SVG 1.1//EN" "http://www.w3.org/Graphics/SVG/1.1/DTD/svg11.dtd">
<!-- Uploaded to: SVG Repo, www.svgrepo.com, Transformed by: SVG Repo Mixer Tools -->
<svg fill="#0bab7c" version="1.1" id="Layer_1" xmlns="http://www.w3.org/2000/svg" xmlns:xlink="http://www.w3.org/1999/xlink" width="800px" height="800px" viewBox="0 0 260 254" enable-background="new 0 0 260 254" xml:space="preserve">
<g id="SVGRepo_bgCarrier" stroke-width="0"/>
<g id="SVGRepo_tracerCarrier" stroke-linecap="round" stroke-linejoin="round"/>
<g id="SVGRepo_iconCarrier"> <path d="M128.2,73.69C112.718,34.242,94.73,10.247,88.861,3.006c-1.056-1.305-2.976-1.483-4.262-0.404l0,0 c-1.204,1.01-1.429,2.771-0.517,4.052c11.7,16.436,34.576,58.912,34.576,97.834c0,28.503-9.329,42.739-9.258,55.892 c0.056,10.395,8.417,18.821,18.801,18.821c8.162,0,17.555-6.309,19.356-17.846C149.744,147.344,143.607,112.948,128.2,73.69z M168.368,91.611c-5.379,0-10.456,2.359-13.929,6.471c-3.422,4.052-4.879,9.356-3.996,14.553c1.059,6.23,3.011,11.866,5.077,17.834 c3.184,9.193,6.476,18.699,6.476,31.14c0,18.235-14.266,32.518-32.479,32.518c-18.212,0-32.477-14.284-32.477-32.518 c0-12.17,3.492-21.534,6.87-30.588c2.292-6.146,4.458-11.951,5.538-18.4c0.87-5.19-0.595-10.488-4.02-14.534 c-3.483-4.115-8.57-6.475-13.958-6.475H2v160.492h256V91.611H168.368z M163.466,105.706c1.223-1.449,3.01-2.279,4.902-2.279h77.816 v34.797c-6.439,1.119-10.396,4.222-13.698,6.819c-3.489,2.743-6.011,4.726-11.587,4.726c-5.569,0-8.089-1.982-11.577-4.724 c-4.11-3.231-9.225-7.253-18.889-7.253c-9.294,0-14.375,3.722-18.406,6.88c-1.409-6.706-3.446-12.595-5.342-18.068 c-1.902-5.492-3.699-10.68-4.594-15.946C161.683,108.249,162.778,106.521,163.466,105.706z M91.471,103.427 c1.905,0,3.706,0.836,4.939,2.293c0.69,0.816,1.788,2.543,1.386,4.948c-0.894,5.332-2.867,10.623-4.956,16.223 c-2.022,5.421-4.195,11.253-5.7,17.889c-4.054-3.181-9.145-6.989-18.553-6.989c-9.659,0-14.772,4.021-18.881,7.253 c-3.487,2.742-6.007,4.724-11.577,4.724c-5.57,0-8.089-1.982-11.577-4.724c-3.134-2.465-6.86-5.384-12.735-6.633v-34.984H91.471z M13.815,240.288v-89.535c1.948,0.845,3.551,2.099,5.431,3.578c4.109,3.232,9.222,7.253,18.881,7.253 c9.66,0,14.773-4.021,18.881-7.253c3.487-2.742,6.007-4.724,11.577-4.724c5.574,0,8.093,1.98,11.579,4.719 c1.53,1.202,3.189,2.497,5.158,3.659c-0.058,1.186-0.098,2.388-0.098,3.625c0,24.86,19.456,44.334,44.293,44.334 c24.838,0,44.294-19.474,44.294-44.334c0-1.239-0.037-2.444-0.09-3.633c1.961-1.16,3.615-2.451,5.14-3.65 c3.487-2.739,6.006-4.719,11.572-4.719c5.576,0,8.097,1.983,11.587,4.726c4.109,3.231,9.222,7.251,18.88,7.251 c9.664,0,14.78-4.022,18.889-7.254c2.182-1.715,3.986-3.133,6.395-3.954v89.913H13.815z"/> </g>
</svg>