<svg width="196" height="196" viewBox="0 0 196 196" fill="none" xmlns="http://www.w3.org/2000/svg">
<g clip-path="url(#clip0_9_1623)">
<path fill-rule="evenodd" clip-rule="evenodd" d="M106.98 47.2954C106.98 46.2842 106.98 17.8261 106.98 16.9015C104.991 -6.32723 71.9834 -5.37381 71.3669 17.9705C71.3669 26.1468 71.1428 44.3485 71.1147 52.4092C71.1111 55.032 70.6055 57.6283 69.627 60.0493C68.6485 62.4702 67.2163 64.6683 65.4124 66.5175C63.6085 68.3668 61.4685 69.8308 59.1149 70.8257C56.7614 71.8206 54.2405 72.3269 51.6969 72.3155C50.2679 72.3155 20.5947 72.5466 18.297 72.3155C13.6301 72.2542 9.13074 74.107 5.7887 77.4663C2.44667 80.8255 0.535734 85.4162 0.476283 90.2282C0.416832 95.0403 2.21374 99.6796 5.47169 103.126C8.72965 106.572 13.1818 108.542 17.8487 108.603H46.7934C83.7238 108.603 106.896 95.1398 106.896 62.6079L106.98 47.2954Z" fill="#0bab7d"/>
<path fill-rule="evenodd" clip-rule="evenodd" d="M88.9915 148.676C88.9915 149.687 88.9915 178.145 88.9915 179.07C90.9809 202.183 123.932 201.287 124.661 178.001C124.661 169.824 124.885 151.623 124.913 143.591C124.913 140.966 125.416 138.366 126.393 135.942C127.37 133.518 128.801 131.316 130.606 129.464C132.41 127.612 134.551 126.145 136.906 125.148C139.262 124.151 141.785 123.644 144.331 123.656C145.76 123.656 175.433 123.425 177.731 123.656C180.095 123.779 182.458 123.409 184.68 122.569C186.902 121.728 188.937 120.434 190.663 118.764C192.389 117.094 193.77 115.082 194.724 112.849C195.678 110.615 196.185 108.207 196.215 105.766C196.246 103.326 195.798 100.905 194.899 98.6469C194.001 96.3891 192.67 94.3415 190.986 92.6265C189.302 90.9116 187.3 89.5645 185.099 88.6659C182.899 87.7673 180.545 87.3356 178.179 87.3968H149.178C112.248 87.3679 89.0755 100.831 89.0755 133.305L88.9915 148.676Z" fill="#F45482"/>
</g>
<defs>
<clipPath id="clip0_9_1623">
<rect width="196" height="196" fill="white"/>
</clipPath>
</defs>
</svg>
